<svg xmlns="http://www.w3.org/2000/svg" width="980" height="540" viewBox="0 0 980 540"><path fill="none" stroke="#000" stroke-width="3" stroke-miterlimit="10" d="M978.5 529.774c0 2.855-2.41 5.17-5.386 5.17H6.886c-2.975 0-5.386-2.315-5.386-5.17v-19.328c0-2.855 2.41-5.17 5.386-5.17h966.228c2.975 0 5.386 2.315 5.386 5.17v19.328z"/><path fill="none" stroke="#000" stroke-width="3" stroke-miterlimit="10" d="M871.61 475.932c0 16.207-.245 29.345-.245 29.345h-762.73s-.246-13.138-.246-29.345V33.392c0-16.208 13.25-29.346 29.598-29.346H842.01c16.347 0 29.6 13.138 29.6 29.345v442.542z"/><path d="M486.33 18.724a1.957 1.957 0 1 1 0 3.914 1.957 1.957 0 0 1 0-3.914m0-3c-2.732 0-4.956 2.224-4.956 4.957s2.224 4.958 4.957 4.958c2.734 0 4.958-2.224 4.958-4.957s-2.224-4.956-4.957-4.956z"/><path fill="none" stroke="#000" stroke-width="3" stroke-miterlimit="10" d="M420.064 505.46v6.41c0 4.324 3.417 7.83 7.633 7.83h125.7c4.217 0 7.634-3.506 7.634-7.83v-6.41M138.265 34.537h704v438h-704z"/><g><path fill-rule="evenodd" clip-rule="evenodd" fill="none" stroke="#000" stroke-width="3" stroke-miterlimit="10" d="M236.205 720.813H737.19v375.74H236.206z"/><path fill="none" stroke="#000" stroke-width="3" stroke-miterlimit="10" d="M796.144 1125.418c0 11.62-9.344 21.038-20.87 21.038H204.725c-11.527 0-20.87-9.42-20.87-21.038v-433.47c0-11.62 9.343-21.038 20.87-21.038h570.547c11.527 0 20.87 9.42 20.87 21.038v433.47z"/><path fill="#FFF" d="M210.397 912.14c-1.906 0-3.457-1.55-3.457-3.457s1.55-3.457 3.457-3.457 3.457 1.55 3.457 3.457-1.55 3.457-3.457 3.457z"/><path d="M210.397 906.726a1.957 1.957 0 1 1 0 3.914 1.957 1.957 0 0 1 0-3.914m0-3a4.963 4.963 0 0 0-4.957 4.957 4.963 4.963 0 0 0 4.957 4.957 4.963 4.963 0 0 0 4.957-4.957 4.962 4.962 0 0 0-4.957-4.957zM766.76 893.292c8.5 0 15.39 6.89 15.39 15.39s-6.89 15.39-15.39 15.39-15.39-6.89-15.39-15.39 6.89-15.39 15.39-15.39m0-3c-10.14 0-18.39 8.25-18.39 18.39s8.25 18.39 18.39 18.39 18.39-8.25 18.39-18.39-8.25-18.39-18.39-18.39z"/><path fill="none" stroke="#000" stroke-width="3" stroke-miterlimit="10" d="M773.063 912.416a2.57 2.57 0 0 1-2.57 2.57h-7.466a2.57 2.57 0 0 1-2.57-2.57v-7.466a2.57 2.57 0 0 1 2.57-2.57h7.466a2.57 2.57 0 0 1 2.57 2.57v7.466z"/></g><g><path fill="none" stroke="#000" stroke-width="3" stroke-miterlimit="10" d="M685.82 1445.044c0 15.683-12.714 28.397-28.397 28.397H322.578c-15.683 0-28.397-12.713-28.397-28.396v-129.852c0-15.683 12.715-28.397 28.398-28.397h334.845c15.683 0 28.397 12.714 28.397 28.397v129.852z"/><path d="M656.588 1364.728c8.5 0 15.39 6.89 15.39 15.39s-6.89 15.39-15.39 15.39-15.39-6.89-15.39-15.39 6.89-15.39 15.39-15.39m0-3c-10.14 0-18.39 8.25-18.39 18.39s8.25 18.39 18.39 18.39 18.39-8.25 18.39-18.39-8.25-18.39-18.39-18.39z"/><path fill="none" stroke="#000" stroke-width="3" stroke-miterlimit="10" d="M662.89 1383.85a2.57 2.57 0 0 1-2.57 2.57h-7.466a2.57 2.57 0 0 1-2.57-2.57v-7.465a2.57 2.57 0 0 1 2.57-2.57h7.466a2.57 2.57 0 0 1 2.57 2.57v7.466z"/><path fill-rule="evenodd" clip-rule="evenodd" fill="none" stroke="#000" stroke-width="3" stroke-miterlimit="10" d="M350.44 1301.84h277.893v156.557H350.44z"/><circle fill-rule="evenodd" clip-rule="evenodd" fill="none" stroke="#000" stroke-width="3" stroke-miterlimit="10" cx="323.29" cy="1380.118" r="3.668"/></g></svg>