<?xml version="1.0" encoding="utf-8"?>
<!-- Generator: Adobe Illustrator 19.0.0, SVG Export Plug-In . SVG Version: 6.00 Build 0)  -->
<svg version="1.1" id="Layer_1" xmlns="http://www.w3.org/2000/svg" xmlns:xlink="http://www.w3.org/1999/xlink" x="0px" y="0px"
	 viewBox="0 0 600 400" style="enable-background:new 0 0 600 400;" xml:space="preserve">
<style type="text/css">
	.st0{font-family:'ArialMT';}
	.st1{font-size:30.4562px;}
</style>
<g id="XMLID_3_">
	<g id="XMLID_10_">
		<path id="XMLID_82_" d="M119.3,165.5v-46.3h18.3v6.6h-13.7V139h9.1v6.6h-9.1v13.2h13.7v6.6C130.2,165.5,126.6,165.5,119.3,165.5
			L119.3,165.5z"/>
		<path id="XMLID_79_" d="M142.1,165.5v-46.3h13.7c1.3,0,2.3,0.7,3.2,2s1.4,2.8,1.4,4.7V159c0,1.9-0.5,3.4-1.4,4.7s-1.9,1.9-3.2,1.9
			C150.3,165.5,147.6,165.5,142.1,165.5L142.1,165.5z M155.8,158.9v-33.1h-9.1v33.1H155.8z"/>
		<path id="XMLID_77_" d="M169.5,165.5c-1.3,0-2.4-0.6-3.2-1.9c-0.9-1.3-1.3-2.8-1.3-4.7v-33.1c0-1.8,0.5-3.4,1.3-4.7
			c0.9-1.3,2-2,3.2-2h9.1c1.3,0,2.3,0.7,3.2,2s1.4,2.8,1.4,4.7v6.6h-4.6v-6.6h-9.1v33.1h9.1v-13.2H174v-6.6h6.8c0.6,0,1.2,0.3,1.6,1
			c0.5,0.7,0.7,1.4,0.7,2.3v16.5c0,1.9-0.5,3.4-1.4,4.7s-1.9,1.9-3.2,1.9H169.5L169.5,165.5z"/>
		<path id="XMLID_74_" d="M187.8,165.5v-39.7c0-1.8,0.5-3.4,1.3-4.7c0.9-1.3,2-2,3.2-2h9.1c1.3,0,2.3,0.7,3.2,2s1.4,2.8,1.4,4.7
			v39.7h-4.6v-19.9h-9.1v19.9H187.8L187.8,165.5z M201.5,139v-13.2h-9.1V139H201.5z"/>
		<path id="XMLID_71_" d="M210.6,165.5v-46.3h13.7c1.3,0,2.3,0.7,3.2,2s1.4,2.8,1.4,4.7v13.2c0,1.9-0.5,3.4-1.4,4.7
			s-1.9,1.9-3.2,1.9H222c2.7,7.9,4.1,11.9,6.8,19.9h-4.6c-2.7-7.9-4.1-11.9-6.8-19.9h-2.3v19.9C213.3,165.5,212.4,165.5,210.6,165.5
			L210.6,165.5z M224.3,139v-13.2h-9.1V139H224.3z"/>
		<path id="XMLID_69_" d="M244.8,165.5v-46.3h4.6c3.8,11,7.6,22.1,11.4,33.1v-33.1h4.6v46.3h-4.6c-3.8-11-7.6-22.1-11.4-33.1v33.1
			H244.8L244.8,165.5z"/>
		<path id="XMLID_66_" d="M274.5,165.5c-1.3,0-2.4-0.6-3.2-1.9c-0.9-1.3-1.3-2.8-1.3-4.7v-33.1c0-1.8,0.5-3.4,1.3-4.7
			c0.9-1.3,2-2,3.2-2h9.1c1.3,0,2.3,0.7,3.2,2c0.9,1.3,1.4,2.8,1.4,4.7v33.1c0,1.9-0.5,3.4-1.4,4.7s-2,1.9-3.2,1.9H274.5z
			 M283.6,158.9v-33.1h-9.1v33.1H283.6z"/>
		<path id="XMLID_64_" d="M297.3,165.5c-1.3,0-2.4-0.6-3.2-1.9c-0.9-1.3-1.3-2.8-1.3-4.7v-6.6h4.6v6.6h9.1v-13.2h-9.1
			c-1.3,0-2.4-0.6-3.2-1.9c-0.9-1.3-1.3-2.8-1.3-4.7v-13.2c0-1.8,0.5-3.4,1.3-4.7c0.9-1.3,2-2,3.2-2h9.1c1.3,0,2.3,0.7,3.2,2
			c0.9,1.3,1.4,2.8,1.4,4.7v6.6h-4.6v-6.6h-9.1v13.2h9.1c1.3,0,2.3,0.7,3.2,2c0.9,1.3,1.4,2.8,1.4,4.7V159c0,1.9-0.5,3.4-1.4,4.7
			s-2,1.9-3.2,1.9C302.8,165.5,301,165.5,297.3,165.5L297.3,165.5z"/>
		<path id="XMLID_62_" d="M315.6,165.5v-6.6c3.8-11,7.6-22.1,11.4-33.1h-11.4v-6.6h18.3c-4.6,13.2-9.1,26.5-13.7,39.7h13.7v6.6
			H315.6z"/>
		<path id="XMLID_60_" d="M343,165.5c-1.3,0-2.4-0.6-3.2-1.9c-0.9-1.3-1.3-2.8-1.3-4.7v-33.1c0-1.8,0.5-3.4,1.3-4.7
			c0.9-1.3,2-2,3.2-2h13.7v6.6H343v33.1h13.7v6.6C351.2,165.5,348.5,165.5,343,165.5L343,165.5z"/>
		<path id="XMLID_58_" d="M361.2,165.5v-6.6c3.8-11,7.6-22.1,11.4-33.1h-11.4v-6.6h18.3c-4.6,13.2-9.1,26.5-13.7,39.7h13.7v6.6
			H361.2z"/>
		<path id="XMLID_56_" d="M390.9,165.5v-19.9c-2.7-7.9-4.1-11.9-6.8-19.9v-6.6h4.6v6.6c1.8,5.3,2.7,7.9,4.6,13.2
			c1.8-5.3,2.7-7.9,4.6-13.2v-6.6h4.6v6.6c-2.7,7.9-4.1,11.9-6.8,19.9v19.9H390.9L390.9,165.5z"/>
		<path id="XMLID_54_" d="M406.9,165.5v-46.3h4.6c3.8,11,7.6,22.1,11.4,33.1v-33.1h4.6v46.3h-4.6c-3.8-11-7.6-22.1-11.4-33.1v33.1
			H406.9z"/>
		<path id="XMLID_52_" d="M436.6,165.5c-1.3,0-2.4-0.6-3.2-1.9c-0.9-1.3-1.3-2.8-1.3-4.7v-6.6h4.6v6.6h9.1v-13.2h-9.1
			c-1.3,0-2.4-0.6-3.2-1.9c-0.9-1.3-1.3-2.8-1.3-4.7v-13.2c0-1.8,0.5-3.4,1.3-4.7c0.9-1.3,2-2,3.2-2h9.1c1.3,0,2.3,0.7,3.2,2
			c0.9,1.3,1.4,2.8,1.4,4.7v6.6h-4.6v-6.6h-9.1v13.2h9.1c1.3,0,2.3,0.7,3.2,2c0.9,1.3,1.4,2.8,1.4,4.7V159c0,1.9-0.5,3.4-1.4,4.7
			s-2,1.9-3.2,1.9C442,165.5,440.2,165.5,436.6,165.5L436.6,165.5z"/>
		<path id="XMLID_50_" d="M454.8,165.5v-46.3h4.6v19.9h2.3c2.7-7.9,4.1-11.9,6.8-19.9h4.6c-3.2,9.3-4.8,13.9-8,23.2
			c3.2,9.3,4.8,13.9,8,23.2h-4.6c-2.7-7.9-4.1-11.9-6.8-19.9h-2.3v19.9C457.6,165.5,456.7,165.5,454.8,165.5L454.8,165.5z"/>
		<path id="XMLID_48_" d="M477.7,165.5v-6.6h4.6v-33.1h-4.6v-6.6h13.7v6.6h-4.6v33.1h4.6v6.6H477.7z"/>
	</g>
</g>
<text id="XMLID_6_" transform="matrix(1.1991 0 0 1 188.9868 248.7305)" class="st0 st1">Web Developer</text>
</svg>
